<?xml version="1.0" encoding="utf-8"?>
<!-- Generator: Adobe Illustrator 24.1.0, SVG Export Plug-In . SVG Version: 6.00 Build 0)  -->
<svg version="1.1" id="Layer_1" xmlns="http://www.w3.org/2000/svg" xmlns:xlink="http://www.w3.org/1999/xlink" x="0px" y="0px"
	 viewBox="0 0 67.34 54.29" style="enable-background:new 0 0 67.34 54.29;" xml:space="preserve">
<style type="text/css">
	.st0{fill:#1C72B9;}
	.st1{fill:#52B47D;}
</style>
<g>
	<path class="st0" d="M67.29,25.76c0.44,8.23-2.31,15.26-8.12,21c-4.67,4.72-10.95,7.41-17.53,7.53c0.11-1.44,0.19-2.71,0.33-3.96
		c0.07-0.26,0.21-0.49,0.42-0.66c0.99-1,1.98-2,2.99-2.97c0.22-0.15,0.46-0.27,0.71-0.36c0.23-0.12,0.44-0.28,0.61-0.47
		c0.62-0.75,1.22-1.52,1.8-2.25c1.22,0.74,1.67,0.72,2.55-0.03c0.52-0.44,1.01-0.22,1.49,0.44c0.56,0.78,1.13,1.61,1.88,2.16
		c1.02,0.72,2.67-0.31,2.81-1.5c0.02-0.63,0.4-1.19,0.97-1.44c0.27-0.13,0.62-0.45,0.63-0.7c0.12-2.16,1.72-3.77,2.02-5.82
		c0.21-1.44,0.99-2.21,2.22-2.75c1.3-0.57,1.35-1.93,1.61-3.08c0.19-0.89,0.19-1.68,1.26-2.08c0.81-0.3,0.93-1.24,1.02-2.06
		c0.02-0.35,0.02-0.69,0-1.04L67.29,25.76z"/>
	<path class="st0" d="M57.05,5.81c-1.24-0.06-2.42-0.24-3.58-0.16c-1.43,0.11-2.85,0.32-4.25,0.62c-1.12,0.23-1.9,1.08-2.55,1.97
		c-0.5,0.72-1.12,0.86-1.92,0.72c-0.9-0.15-1.88,0-2.71-0.3c-1.19-0.41-2.31-0.99-3.32-1.74c-1.61-1.24-2.92-1.39-4.57-0.25
		C33.79,6.86,33.4,7,33.01,7.08c-0.34,0.07-0.66,0.17-0.98,0.31c-0.83,0.5-1.39,0.38-1.89-0.5c-0.75-1.34-1.55-2.62-3.15-3.11
		C35.72-1.76,48.61-1.32,57.05,5.81"/>
	<g>
		<g>
			<path class="st1" d="M13.55,20.19v0.2c-0.12,0.1-0.49,0.53-0.49,1.25v12.7h-0.97l-9.27-9.18v7.73c0,0.73,0.41,1.15,0.54,1.25v0.2
				H0.23v-0.2c0.12-0.1,0.49-0.53,0.49-1.25V22.15c0-1.09-0.58-1.62-0.72-1.76v-0.2h2.82l8.14,8.07v-6.61
				c0-0.73-0.37-1.15-0.49-1.25v-0.2H13.55z"/>
			<path class="st1" d="M26,31.28l-0.82,3.22h-0.17c-0.25-0.16-1.07-0.14-1.07-0.14h-8.32v-0.2c0.12-0.14,0.7-0.67,0.7-1.76V22.15
				c0-1.09-0.58-1.62-0.7-1.76v-0.2h7.07c0,0,1.26,0.02,1.48-0.18h0.14v3.3h-0.14c-0.04-0.18-0.31-1.01-1.48-1.01h-3.05v3.3h3.3
				c0.27,0,0.47-0.14,0.58-0.28h0.08v2.59h-0.08c-0.1-0.14-0.31-0.28-0.58-0.28h-3.3v4.63h4.31c1.22,0,1.73-0.89,1.83-1.03L26,31.28
				z"/>
			<path class="st1" d="M38.01,30.12c0,3.54-2.95,4.43-5.56,4.43c-2.49,0-3.93-0.59-4.8-1.09v-3.11l0.21-0.06
				c0.89,1.23,2.6,2.12,4.16,2.12c1.52,0,2.31-0.47,2.31-1.46c0-2.43-6.24-2.69-6.24-6.98c0-3.56,3.5-4.09,5.03-4.09
				c1.52,0,2.58,0.34,3.32,0.59c0,0,0.23,2.08,0.29,2.49L36.53,23c-0.45-0.47-1.81-1.15-3.15-1.15c-0.97,0-2.08,0.28-2.08,1.35
				C31.29,25.47,38.01,25.77,38.01,30.12z"/>
			<path class="st1" d="M53.98,26.64v0.2c-0.29,0.16-0.56,0.53-0.56,1.44v4.79c-1.13,0.69-3.13,1.48-5.62,1.48
				c-4.92,0-7.31-2.41-7.85-6.21c-0.6-4.21,2.37-7.89,7.25-8.41c0.43-0.04,0.8-0.04,1.22-0.04c1.55,0,3.15,0.28,4.14,0.59v2.57
				h-0.21c-0.95-0.65-2.82-1.4-4.76-1.11c-3.4,0.51-4.31,3.3-3.98,5.97c0.41,3.24,2.25,4.87,5.23,4.67c0.43-0.02,0.89-0.1,1.36-0.24
				v-3.74c0-1.05-0.43-1.6-1.07-1.74v-0.2H53.98z"/>
		</g>
	</g>
</g>
</svg>
