<?xml version="1.0" encoding="utf-8"?>
<!-- Generator: Adobe Illustrator 24.1.0, SVG Export Plug-In . SVG Version: 6.00 Build 0)  -->
<svg version="1.1" id="Layer_1" xmlns="http://www.w3.org/2000/svg" xmlns:xlink="http://www.w3.org/1999/xlink" x="0px" y="0px"
	 viewBox="0 0 18 18" style="enable-background:new 0 0 18 18;" xml:space="preserve">
<style type="text/css">
	.st0{fill:#FFFFFF;}
</style>
<path class="st0" d="M16.48,5.94l-1.1,1.65c1.08,2.14,1,4.69-0.2,6.77H2.81c-1.97-3.42-0.8-7.78,2.62-9.75
	c2.08-1.2,4.62-1.27,6.76-0.2l1.65-1.1C9.69,0.64,4.17,1.85,1.51,6c-1.79,2.8-1.88,6.36-0.24,9.25c0.32,0.55,0.9,0.89,1.54,0.89
	h12.36c0.64,0,1.23-0.34,1.55-0.89C18.4,12.34,18.31,8.74,16.48,5.94L16.48,5.94z"/>
<path class="st0" d="M7.74,12.04c0.7,0.7,1.83,0.7,2.52,0c0,0,0,0,0,0l5.05-7.58L7.74,9.52C7.04,10.21,7.04,11.34,7.74,12.04
	C7.74,12.04,7.74,12.04,7.74,12.04z"/>
</svg>
