<?xml version="1.0" encoding="utf-8"?>
<!-- Generator: Adobe Illustrator 24.1.0, SVG Export Plug-In . SVG Version: 6.00 Build 0)  -->
<svg version="1.1" id="Layer_1" xmlns="http://www.w3.org/2000/svg" xmlns:xlink="http://www.w3.org/1999/xlink" x="0px" y="0px"
	 viewBox="0 0 70.57 100" style="enable-background:new 0 0 70.57 100;" xml:space="preserve">
<style type="text/css">
	.st0{fill-rule:evenodd;clip-rule:evenodd;fill:#FFFFFF;}
	.st1{fill:#FFFFFF;}
</style>
<g>
	<path class="st0" d="M23.69,47.69h23.2c2.62,0,4.77,3.43,4.77,7.62v37.06c0,4.19-2.15,7.63-4.77,7.63h-23.2
		c-2.63,0-4.77-3.43-4.77-7.63V55.31C18.91,51.12,21.06,47.69,23.69,47.69"/>
	<path class="st1" d="M14.12,88.2c0,0.02,0,0.04,0,0.05v-0.1C14.12,88.17,14.12,88.18,14.12,88.2"/>
	<path class="st1" d="M70.44,32.23C69.25,17.03,57.96,4.15,43.04,0.9c-1.75-0.38-3.54-0.6-5.31-0.9h-4.86
		c-0.9,0.14-1.81,0.29-2.71,0.41C13.57,2.72,0.6,17.04,0.02,33.77c-0.36,10.54,3.25,19.57,10.86,26.86
		c1.64,1.58,2.94,3.07,3.24,5.19V54.07c-5.72-6.3-8.01-14-6.78-22.81c2.27-16.32,18-27.07,34.11-23.53
		c14.4,3.16,24.07,17.18,21.84,31.71c-0.86,5.64-3.17,10.49-6.81,14.59v11.58c0.05-1.42,0.54-2.51,1.63-3.47
		C67.12,54.2,71.38,44.26,70.44,32.23"/>
	<path class="st1" d="M17.6,38.85c2.05,0.02,3.45-1.54,3.58-3.8c0.07-1.24,0.23-2.5,0.57-3.69c1.67-5.91,7.06-10.03,13.21-10.17
		c1.87-0.04,3.1-0.83,3.64-2.31c0.92-2.55-0.94-4.79-3.92-4.72c-11.16,0.26-20.37,9.54-20.55,20.7
		C14.09,37.18,15.52,38.82,17.6,38.85"/>
</g>
</svg>
