<?xml version="1.0" encoding="utf-8"?>
<!-- Generator: Adobe Illustrator 24.1.0, SVG Export Plug-In . SVG Version: 6.00 Build 0)  -->
<svg version="1.1" id="Layer_1" xmlns="http://www.w3.org/2000/svg" xmlns:xlink="http://www.w3.org/1999/xlink" x="0px" y="0px"
	 viewBox="0 0 404.81 50" style="enable-background:new 0 0 404.81 50;" xml:space="preserve">
<style type="text/css">
	.st0{fill:#303030;}
	.st1{fill:#00838F;}
	.st2{fill-rule:evenodd;clip-rule:evenodd;fill:#303030;}
	.st3{fill:none;}
	.st4{fill:#1B75BB;}
</style>
<g>
	<g>
		<path class="st0" d="M76.37,30.14v19.19H64.61V32.05c0-4.83-2.1-6.87-5.51-6.87c-3.78,0-6.68,2.35-6.68,7.92v16.22H40.66V15.78
			h11.2v3.65c2.66-2.79,6.44-4.21,10.65-4.21C70.37,15.22,76.37,19.74,76.37,30.14z"/>
		<path class="st0" d="M81.07,46.41l3.53-8.04c3.09,1.92,7.61,3.09,11.7,3.09c3.96,0,5.26-0.87,5.26-2.29
			c0-4.52-19.8,0.62-19.8-12.81c0-6.31,5.82-11.14,16.34-11.14c4.7,0,9.9,0.99,13.25,2.85l-3.53,7.98
			c-3.34-1.86-6.68-2.48-9.66-2.48c-3.96,0-5.38,1.11-5.38,2.35c0,4.64,19.74-0.37,19.74,12.93c0,6.19-5.7,11.02-16.59,11.02
			C90.23,49.88,84.35,48.45,81.07,46.41z"/>
		<path class="st0" d="M140.72,47.96c-2.04,1.3-5.08,1.92-8.17,1.92c-8.6,0-13.61-4.21-13.61-12.81V25.8h-4.89v-8.79h4.89V8.29
			h11.76v8.73h7.67v8.79h-7.67v11.14c0,2.48,1.42,3.84,3.53,3.84c1.3,0,2.6-0.37,3.59-1.05L140.72,47.96z"/>
		<path class="st0" d="M143.94,5.81c0-3.53,2.85-6.25,7.18-6.25c4.33,0,7.18,2.54,7.18,6.07c0,3.71-2.85,6.44-7.18,6.44
			C146.79,12.06,143.94,9.34,143.94,5.81z M145.24,15.78H157v33.54h-11.76V15.78z"/>
		<path class="st0" d="M200.32,30.14v19.19h-11.76V32.05c0-4.83-2.1-6.87-5.51-6.87c-3.78,0-6.68,2.35-6.68,7.92v16.22h-11.76V15.78
			h11.2v3.65c2.66-2.79,6.44-4.21,10.65-4.21C194.31,15.22,200.32,19.74,200.32,30.14z"/>
		<path class="st0" d="M206.07,32.49c0-10.09,7.98-17.27,19.25-17.27c7.61,0,13.43,3.41,15.72,9.22l-9.1,4.64
			c-1.61-3.16-3.96-4.52-6.68-4.52c-4.08,0-7.3,2.85-7.3,7.92c0,5.2,3.22,8.05,7.3,8.05c2.72,0,5.07-1.36,6.68-4.52l9.1,4.64
			c-2.29,5.82-8.11,9.22-15.72,9.22C214.05,49.88,206.07,42.7,206.07,32.49z"/>
		<path class="st0" d="M269.18,47.96c-2.04,1.3-5.08,1.92-8.17,1.92c-8.6,0-13.61-4.21-13.61-12.81V25.8h-4.89v-8.79h4.89V8.29
			h11.76v8.73h7.67v8.79h-7.67v11.14c0,2.48,1.42,3.84,3.53,3.84c1.3,0,2.6-0.37,3.59-1.05L269.18,47.96z"/>
		<path class="st1" d="M315.47,6v43.32h-12.25v-16.9h-16.71v16.9h-12.25V6h12.25v16.28h16.71V6H315.47z"/>
		<path class="st1" d="M358.85,15.78v33.54h-11.2v-3.59c-2.54,2.78-6.13,4.15-9.97,4.15c-8.23,0-14.23-4.7-14.23-15.35V15.78h11.76
			v16.83c0,5.2,2.04,7.24,5.57,7.24c3.47,0,6.31-2.29,6.31-7.92V15.78H358.85z"/>
		<path class="st1" d="M403.96,32.49c0,10.71-7.37,17.39-16.46,17.39c-4.39,0-7.67-1.24-9.9-3.9v3.34h-11.2V3.4h11.76v15.29
			c2.29-2.35,5.45-3.47,9.35-3.47C396.59,15.22,403.96,21.84,403.96,32.49z M392.08,32.49c0-5.07-3.1-7.92-7.06-7.92
			c-3.96,0-7.05,2.85-7.05,7.92c0,5.14,3.09,8.05,7.05,8.05C388.98,40.53,392.08,37.62,392.08,32.49z"/>
	</g>
	<g>
		<path class="st2" d="M11.33,23.29h11.14c1.26,0,2.29,1.65,2.29,3.66v17.79c0,2.01-1.03,3.66-2.29,3.66H11.33
			c-1.26,0-2.29-1.65-2.29-3.66V26.95C9.04,24.93,10.07,23.29,11.33,23.29L11.33,23.29z"/>
	</g>
	<g>
		<g>
			<path class="st3" d="M27.08,22.39v3.94c1.75-1.97,2.86-4.3,3.27-7c1.07-6.98-3.58-13.71-10.49-15.23
				C12.13,2.4,4.57,7.56,3.48,15.4C2.9,19.63,4,23.32,6.74,26.35v-3.96H27.08z M16.61,7.18c1.43-0.03,2.33,1.04,1.88,2.27
				c-0.26,0.71-0.85,1.09-1.75,1.11c-2.95,0.07-5.54,2.05-6.34,4.88c-0.16,0.57-0.24,1.18-0.27,1.77c-0.06,1.09-0.74,1.84-1.72,1.83
				c-1-0.01-1.69-0.8-1.67-1.92C6.83,11.76,11.25,7.31,16.61,7.18z"/>
		</g>
		<g>
			<path class="st4" d="M6.74,42.74c0,0.01,0,0.02,0,0.03v-0.05C6.74,42.72,6.74,42.73,6.74,42.74z"/>
		</g>
		<g>
			<path class="st1" d="M33.78,15.86c-0.57-7.3-6-13.48-13.16-15.05c-0.84-0.18-1.7-0.29-2.55-0.43c-0.78,0-1.56,0-2.33,0
				c-0.43,0.07-0.87,0.14-1.3,0.2C6.47,1.7,0.25,8.57-0.03,16.6C-0.2,21.66,1.53,26,5.18,29.5c0.79,0.76,1.41,1.47,1.56,2.49v-5.64
				C4,23.32,2.9,19.63,3.48,15.4c1.09-7.84,8.65-13,16.38-11.3c6.91,1.52,11.56,8.25,10.49,15.23c-0.41,2.71-1.52,5.04-3.27,7v5.56
				c0.03-0.68,0.26-1.2,0.78-1.67C32.19,26.41,34.24,21.64,33.78,15.86z"/>
		</g>
		<g>
			<path class="st1" d="M8.41,19.04c0.98,0.01,1.66-0.74,1.72-1.83c0.03-0.59,0.11-1.2,0.27-1.77c0.8-2.84,3.39-4.82,6.34-4.88
				c0.9-0.02,1.49-0.4,1.75-1.11c0.44-1.22-0.45-2.3-1.88-2.27c-5.36,0.12-9.78,4.58-9.87,9.94C6.72,18.24,7.41,19.03,8.41,19.04z"
				/>
		</g>
	</g>
</g>
</svg>
