<?xml version="1.0" encoding="utf-8"?>
<!-- Generator: Adobe Illustrator 24.1.0, SVG Export Plug-In . SVG Version: 6.00 Build 0)  -->
<svg version="1.1" id="Layer_1" xmlns="http://www.w3.org/2000/svg" xmlns:xlink="http://www.w3.org/1999/xlink" x="0px" y="0px"
	 viewBox="0 0 387.36 50" style="enable-background:new 0 0 387.36 50;" xml:space="preserve">
<style type="text/css">
	.st0{fill:#FFFFFF;}
	.st1{fill-rule:evenodd;clip-rule:evenodd;fill:#FFFFFF;}
</style>
<g>
	<g>
		<path class="st0" d="M72.84,31.05v18.3H61.62V32.88c0-4.6-2.01-6.55-5.25-6.55c-3.6,0-6.37,2.24-6.37,7.56v15.47H38.78V17.35
			h10.68v3.48c2.54-2.66,6.14-4.01,10.15-4.01C67.11,16.82,72.84,21.13,72.84,31.05z"/>
		<path class="st0" d="M77.32,46.57l3.36-7.67c2.95,1.83,7.26,2.95,11.16,2.95c3.78,0,5.02-0.83,5.02-2.18
			c0-4.31-18.89,0.59-18.89-12.22c0-6.02,5.55-10.63,15.58-10.63c4.49,0,9.45,0.95,12.63,2.72l-3.36,7.61
			c-3.19-1.77-6.37-2.36-9.21-2.36c-3.78,0-5.13,1.06-5.13,2.24c0,4.43,18.83-0.35,18.83,12.34c0,5.9-5.43,10.51-15.82,10.51
			C86.05,49.88,80.44,48.52,77.32,46.57z"/>
		<path class="st0" d="M134.21,48.05c-1.95,1.24-4.84,1.83-7.79,1.83c-8.21,0-12.98-4.01-12.98-12.22V26.92h-4.66v-8.38h4.66v-8.32
			h11.21v8.32h7.32v8.38h-7.32v10.62c0,2.36,1.36,3.66,3.36,3.66c1.24,0,2.48-0.35,3.42-1L134.21,48.05z"/>
		<path class="st0" d="M137.28,7.85c0-3.36,2.72-5.96,6.85-5.96c4.13,0,6.85,2.42,6.85,5.78c0,3.54-2.72,6.14-6.85,6.14
			C139.99,13.81,137.28,11.22,137.28,7.85z M138.52,17.35h11.21v31.99h-11.21V17.35z"/>
		<path class="st0" d="M191.05,31.05v18.3h-11.21V32.88c0-4.6-2.01-6.55-5.25-6.55c-3.6,0-6.37,2.24-6.37,7.56v15.47h-11.21V17.35
			h10.68v3.48c2.54-2.66,6.14-4.01,10.15-4.01C185.32,16.82,191.05,21.13,191.05,31.05z"/>
		<path class="st0" d="M196.53,33.29c0-9.62,7.61-16.47,18.36-16.47c7.26,0,12.81,3.25,14.99,8.8l-8.68,4.43
			c-1.54-3.01-3.78-4.31-6.37-4.31c-3.9,0-6.96,2.72-6.96,7.56c0,4.96,3.07,7.67,6.96,7.67c2.6,0,4.84-1.3,6.37-4.31l8.68,4.43
			c-2.19,5.55-7.73,8.8-14.99,8.8C204.14,49.88,196.53,43.03,196.53,33.29z"/>
		<path class="st0" d="M256.73,48.05c-1.95,1.24-4.84,1.83-7.79,1.83c-8.21,0-12.98-4.01-12.98-12.22V26.92h-4.66v-8.38h4.66v-8.32
			h11.21v8.32h7.32v8.38h-7.32v10.62c0,2.36,1.36,3.66,3.36,3.66c1.24,0,2.48-0.35,3.42-1L256.73,48.05z"/>
		<path class="st0" d="M300.87,8.03v41.32h-11.68V33.23h-15.94v16.11h-11.69V8.03h11.69v15.52h15.94V8.03H300.87z"/>
		<path class="st0" d="M342.24,17.35v31.99h-10.68v-3.42c-2.42,2.66-5.84,3.95-9.5,3.95c-7.85,0-13.57-4.49-13.57-14.64V17.35h11.21
			v16.05c0,4.96,1.95,6.91,5.31,6.91c3.31,0,6.02-2.18,6.02-7.56V17.35H342.24z"/>
		<path class="st0" d="M385.27,33.29c0,10.21-7.03,16.59-15.7,16.59c-4.19,0-7.32-1.18-9.45-3.72v3.19h-10.68V5.55h11.21v14.58
			c2.19-2.24,5.2-3.31,8.91-3.31C378.24,16.82,385.27,23.14,385.27,33.29z M373.93,33.29c0-4.84-2.95-7.56-6.73-7.56
			s-6.73,2.72-6.73,7.56c0,4.9,2.95,7.67,6.73,7.67S373.93,38.19,373.93,33.29z"/>
	</g>
	<g>
		<path class="st1" d="M10.81,24.52h10.62c1.2,0,2.19,1.57,2.19,3.49v16.97c0,1.92-0.98,3.49-2.19,3.49H10.81
			c-1.2,0-2.19-1.57-2.19-3.49V28.01C8.62,26.09,9.6,24.52,10.81,24.52L10.81,24.52z"/>
	</g>
	<g>
		<g>
			<path class="st0" d="M6.43,43.07c0,0.01,0,0.02,0,0.02v-0.04C6.43,43.05,6.43,43.06,6.43,43.07z"/>
		</g>
		<g>
			<path class="st0" d="M32.22,17.44C31.67,10.48,26.5,4.58,19.67,3.09c-0.8-0.18-1.62-0.28-2.43-0.41c-0.74,0-1.48,0-2.22,0
				c-0.41,0.06-0.83,0.13-1.24,0.19c-7.6,1.06-13.54,7.61-13.8,15.28c-0.17,4.83,1.49,8.96,4.97,12.3c0.75,0.72,1.35,1.41,1.49,2.38
				v-5.38c-2.62-2.89-3.67-6.41-3.11-10.44C4.36,9.52,11.57,4.6,18.94,6.22c6.59,1.45,11.02,7.87,10,14.52
				c-0.4,2.58-1.45,4.8-3.12,6.68v5.3c0.02-0.65,0.25-1.15,0.75-1.59C30.7,27.5,32.65,22.94,32.22,17.44z"/>
		</g>
		<g>
			<path class="st0" d="M8.02,20.47c0.94,0.01,1.58-0.7,1.64-1.74c0.03-0.57,0.11-1.14,0.26-1.69c0.76-2.71,3.23-4.59,6.05-4.66
				c0.85-0.02,1.42-0.38,1.67-1.06c0.42-1.17-0.43-2.19-1.79-2.16c-5.11,0.12-9.33,4.37-9.41,9.48C6.41,19.7,7.07,20.46,8.02,20.47z
				"/>
		</g>
	</g>
</g>
</svg>
