<?xml version="1.0" encoding="utf-8"?>
<!-- Generator: Adobe Illustrator 24.1.0, SVG Export Plug-In . SVG Version: 6.00 Build 0)  -->
<svg version="1.1" id="Layer_1" xmlns="http://www.w3.org/2000/svg" xmlns:xlink="http://www.w3.org/1999/xlink" x="0px" y="0px"
	 viewBox="0 0 553 350" style="enable-background:new 0 0 553 350;" xml:space="preserve">
<style type="text/css">
	.st0{fill:#FFB800;}
	.st1{fill:#FFFFFF;}
	.st2{fill:#EEEEEE;}
	.st3{fill:#8494AB;}
	.st4{opacity:0.52;fill:#D5E3EB;}
	.st5{fill:#C1CCD3;}
	.st6{fill:#111B34;}
	.st7{fill:#F9F9F9;}
	.st8{fill:#DCDCEA;}
	.st9{fill:#53B47C;}
	.st10{fill:#3C49B9;}
	.st11{clip-path:url(#SVGID_2_);}
	.st12{clip-path:url(#SVGID_4_);fill:#1C72B9;}
	.st13{clip-path:url(#SVGID_4_);fill:#52B47D;}
	.st14{fill:#8796A0;}
	.st15{fill:#F4BCA3;}
	.st16{fill:#EF8B67;}
	.st17{fill:#1E71B8;}
	.st18{opacity:0.55;fill:#F9F9F9;}
	.st19{fill:#932646;}
	.st20{fill:#3C4DB5;}
	.st21{fill:#4D6486;}
	.st22{fill:#C8CED9;}
	.st23{fill:#CECDE9;}
</style>
<path class="st0" d="M148.1,304.45c-2.04,0.78-6.12,1.82-7.39,3.78c-1.24,1.92-1.78,4.25-2.07,6.54c1.66-1.77,3.45-3.45,5.5-4.98
	c3.54-2.66,7.25-5.14,10.81-7.8C152.65,302.78,150.36,303.59,148.1,304.45z"/>
<path class="st1" d="M549.16,350H3.84C1.72,350,0,348.28,0,346.16V3.84C0,1.72,1.72,0,3.84,0h545.31c2.12,0,3.84,1.72,3.84,3.84
	v342.31C553,348.28,551.28,350,549.16,350z"/>
<path class="st2" d="M554.12,347.43V3.75c0-2.07-1.68-3.75-3.75-3.75h-94.4c-13.79,8.3-30.16,34.83-34.6,49.45
	c-7.57,24.93-24.2,42.24-32.65,46.87c-22.07,12.09-46.94,9.17-70.85,14.79c-25.89,6.09-50.04,21.76-61.43,44.95
	c-11.02,22.42-7.81,41.22-14.21,64.29c-6.5,23.43-29.82,41.62-51.97,50.1c-23.47,8.99-46.17,15.74-50.46,41.14
	c-2.21,13.07-1.05,26.62,2.75,39.59h407.81C552.44,351.18,554.12,349.5,554.12,347.43z"/>
<g>
	<path class="st1" d="M405.68,75.72v95.97h128.65V75.72H405.68z M528.25,165.46H411.77v-83.5h116.48V165.46z"/>
	<rect x="468.51" y="79.05" class="st1" width="3" height="89.31"/>
	<rect x="407.82" y="122.21" class="st1" width="124.37" height="3"/>
</g>
<ellipse class="st3" cx="407.88" cy="318.89" rx="115.33" ry="7.73"/>
<path class="st3" d="M298.59,301.25c0,2.43-10.16,4.4-22.69,4.4c-12.53,0-22.69-1.97-22.69-4.4c0-2.43,10.16-4.4,22.69-4.4
	C288.43,296.85,298.59,298.82,298.59,301.25z"/>
<path class="st4" d="M0,3.8c0,0,0,69.35,0,102.07c3.89,0.32,8.24-0.04,10.98-0.17c8.05-0.38,15.24-0.71,21.46-2.9
	c5.66-1.99,10.52-5.51,14.51-12c9.36-15.21,14.82-19.02,32.14-20.57c35.59-3.2,28.93-46.5,45.59-67.51c0.79-1,1.7-1.86,2.59-2.72
	H4.45C2,0,0,1.7,0,3.8z"/>
<g>
	<g>
		<g>
			<path class="st5" d="M412.11,88.17h-12.22l-9.84,11.16l4.84-11.16h-8.88c-0.72,0-1.31-0.58-1.31-1.31V70.06
				c0-0.72,0.58-1.31,1.31-1.31h26.1c0.72,0,1.31,0.58,1.31,1.31v16.81C413.42,87.59,412.83,88.17,412.11,88.17z"/>
		</g>
	</g>
	<g>
		<path class="st1" d="M395.66,83.3h-3.17v-2.98h3.17V83.3z"/>
		<path class="st1" d="M400.64,83.3h-3.17v-2.98h3.17V83.3z"/>
		<path class="st1" d="M405.63,83.3h-3.17v-2.98h3.17V83.3z"/>
	</g>
</g>
<g>
	<g>
		<g>
			<path class="st6" d="M474.69,196.71H340.9c-3.09,0-5.59-2.5-5.59-5.59v-78.95c0-3.09,2.5-5.59,5.59-5.59h133.79
				c3.09,0,5.59,2.5,5.59,5.59v78.95C480.29,194.21,477.78,196.71,474.69,196.71z"/>
			<rect x="343.58" y="112.72" class="st7" width="128.15" height="70.84"/>
			<g>
				<rect x="421.34" y="123.71" class="st8" width="41.44" height="52.49"/>
				<rect x="449.47" y="128.65" class="st9" width="8.77" height="5.23"/>
				<rect x="449.11" y="138.35" class="st10" width="9.16" height="5.23"/>
				<rect x="425.25" y="148.04" class="st1" width="33.63" height="5.23"/>
				<rect x="425.25" y="157.73" class="st1" width="33.63" height="5.23"/>
				<rect x="425.25" y="167.42" class="st1" width="33.63" height="5.23"/>
				<g id="NESG_1_">
					<g>
						<defs>
							<rect id="SVGID_1_" x="424.79" y="128.65" width="18" height="14.51"/>
						</defs>
						<clipPath id="SVGID_2_">
							<use xlink:href="#SVGID_1_"  style="overflow:visible;"/>
						</clipPath>
						<g class="st11">
							<defs>
								<rect id="SVGID_3_" x="424.79" y="128.65" width="18" height="14.51"/>
							</defs>
							<clipPath id="SVGID_4_">
								<use xlink:href="#SVGID_3_"  style="overflow:visible;"/>
							</clipPath>
							<path class="st12" d="M442.78,135.54c0.12,2.2-0.62,4.08-2.17,5.61c-1.25,1.26-2.93,1.98-4.69,2.01
								c0.03-0.39,0.05-0.73,0.09-1.06c0.02-0.07,0.06-0.13,0.11-0.18c0.26-0.27,0.53-0.53,0.8-0.79c0.06-0.04,0.12-0.07,0.19-0.1
								c0.06-0.03,0.12-0.07,0.16-0.13c0.17-0.2,0.33-0.41,0.48-0.6c0.33,0.2,0.45,0.19,0.68-0.01c0.14-0.12,0.27-0.06,0.4,0.12
								c0.15,0.21,0.3,0.43,0.5,0.58c0.27,0.19,0.71-0.08,0.75-0.4c0-0.17,0.11-0.32,0.26-0.38c0.07-0.04,0.16-0.12,0.17-0.19
								c0.03-0.58,0.46-1.01,0.54-1.56c0.06-0.38,0.27-0.59,0.59-0.74c0.35-0.15,0.36-0.52,0.43-0.82c0.05-0.24,0.05-0.45,0.34-0.56
								c0.22-0.08,0.25-0.33,0.27-0.55c0.01-0.09,0.01-0.19,0-0.28L442.78,135.54z"/>
							<path class="st12" d="M440.04,130.21c-0.33-0.02-0.65-0.06-0.96-0.04c-0.38,0.03-0.76,0.09-1.14,0.17
								c-0.3,0.06-0.51,0.29-0.68,0.53c-0.13,0.19-0.3,0.23-0.51,0.19c-0.24-0.04-0.5,0-0.72-0.08c-0.32-0.11-0.62-0.27-0.89-0.47
								c-0.43-0.33-0.78-0.37-1.22-0.07c-0.1,0.05-0.2,0.09-0.3,0.11c-0.09,0.02-0.18,0.05-0.26,0.08c-0.22,0.13-0.37,0.1-0.51-0.13
								c-0.2-0.36-0.41-0.7-0.84-0.83C434.34,128.18,437.78,128.3,440.04,130.21"/>
							<path class="st13" d="M428.41,134.05v0.05c-0.03,0.03-0.13,0.14-0.13,0.34v3.39h-0.26l-2.48-2.45v2.07
								c0,0.19,0.11,0.31,0.14,0.34v0.05h-0.84v-0.05c0.03-0.03,0.13-0.14,0.13-0.34v-2.87c0-0.29-0.15-0.43-0.19-0.47v-0.05h0.75
								l2.18,2.16v-1.77c0-0.19-0.1-0.31-0.13-0.34v-0.05H428.41z"/>
							<path class="st13" d="M431.74,137.01l-0.22,0.86h-0.04c-0.07-0.04-0.29-0.04-0.29-0.04h-2.22v-0.05
								c0.03-0.04,0.19-0.18,0.19-0.47v-2.74c0-0.29-0.15-0.43-0.19-0.47v-0.05h1.89c0,0,0.34,0.01,0.4-0.05h0.04v0.88h-0.04
								c-0.01-0.05-0.08-0.27-0.4-0.27h-0.82v0.88h0.88c0.07,0,0.13-0.04,0.15-0.08h0.02v0.69h-0.02c-0.03-0.04-0.08-0.08-0.15-0.08
								h-0.88v1.24h1.15c0.32,0,0.46-0.24,0.49-0.28L431.74,137.01z"/>
							<path class="st13" d="M434.95,136.7c0,0.95-0.79,1.18-1.49,1.18c-0.67,0-1.05-0.16-1.28-0.29v-0.83l0.06-0.02
								c0.24,0.33,0.69,0.57,1.11,0.57c0.41,0,0.62-0.12,0.62-0.39c0-0.65-1.67-0.72-1.67-1.86c0-0.95,0.94-1.09,1.34-1.09
								c0.41,0,0.69,0.09,0.89,0.16c0,0,0.06,0.56,0.08,0.66l-0.05,0.01c-0.12-0.12-0.48-0.31-0.84-0.31
								c-0.26,0-0.56,0.08-0.56,0.36C433.16,135.46,434.95,135.54,434.95,136.7"/>
							<path class="st13" d="M439.22,135.77v0.05c-0.08,0.04-0.15,0.14-0.15,0.38v1.28c-0.3,0.18-0.84,0.39-1.5,0.39
								c-1.32,0-1.95-0.64-2.1-1.66c-0.16-1.12,0.63-2.11,1.94-2.25c0.12-0.01,0.21-0.01,0.33-0.01c0.41,0,0.84,0.08,1.11,0.16v0.69
								h-0.06c-0.25-0.17-0.75-0.37-1.27-0.3c-0.91,0.13-1.15,0.88-1.06,1.59c0.11,0.86,0.6,1.3,1.4,1.25
								c0.12-0.01,0.24-0.03,0.36-0.06v-1c0-0.28-0.12-0.43-0.29-0.46v-0.05H439.22z"/>
						</g>
					</g>
				</g>
			</g>
			<path class="st6" d="M374.73,130.15c0,0,6.83,0.04,7.78,4.49c0.95,4.45,0.11,9.45,1.27,12.58c1.16,3.13,4.79,11.87-2.99,12.36
				c-7.78,0.49-9.05-1.73-10.95-1.81c-1.91-0.08-4.76,4.51-10.4,1.88c-5.64-2.63-3.18-8.53-0.74-9.25c2.43-0.71,1.49-4.92,0.9-6.32
				c-1.22-2.91-2.12-11.87,6.19-14.51C372.5,127.45,374.73,130.15,374.73,130.15z"/>
			<path class="st14" d="M368.18,146.32c-0.51,5.99-0.91,13.09-3.38,18.15c0.28,2.43,1.62,7.05,7.87,6.88
				c5.3-0.14,6.87-3.45,7.3-5.92c-2.48-4.21-3.98-9.87-4.32-15.44C373.22,149.99,369.86,147.53,368.18,146.32z"/>
			<path class="st5" d="M369.94,132.39c0,0,8.57,0.41,10.34,2.18c1.77,1.77,1.69,5.37,2.18,10.65c0.49,5.28-2.75,11.1-5.61,11.87
				c-2.86,0.77-10.72-4.15-11.81-12.35C363.95,136.54,366.64,132.11,369.94,132.39z"/>
			<g>
				<path class="st15" d="M434.34,156.51c0,0,4.2-4.66,5.82-7.22c1.6-2.53,7.59-10.85,8.84-9.55c1.24,1.3-3.92,8.19-3.92,8.19
					s5-8.94,6.75-7.96c1.73,0.97-4.64,8.83-4.64,8.83s5.42-7.56,6.35-6.5c0.92,1.05-0.18,2.72-4.64,8.24c0,0,3.83-4.75,4.75-3.26
					c0.92,1.49-3.44,5.69-4.97,6.61c-1.55,0.94-9.05,4.93-11.07,6.88C437.62,160.78,434.02,158.93,434.34,156.51z"/>
				<path class="st16" d="M448.28,148.93c-0.44-1.14-2.21-1.04-3.28-0.95c-1.31,0.12-2.5,0.57-3.35,1.6c-0.45,0.55-0.8,1.1-1.3,1.62
					c-0.95,0.99-0.31,1.84-0.02,2.92c0.09,0.31,2.17,0.63,4.18-0.18c1.45-0.58,2.94-2.16,3.24-2.78
					C448.13,150.38,448.44,149.32,448.28,148.93z"/>
				<path class="st15" d="M441.24,150.26c0,0,4.77-3.24,6.25-2.25c1.48,0.99,0.16,2.25-4.88,4.33c0,0-1.64,2.47-2.8,2.74
					C439.82,155.08,438.13,152.01,441.24,150.26z"/>
			</g>
			<path class="st6" d="M373.75,130.44c0,0,2.35,10.25-4.95,11.54c0,0-1.92,2.61-0.88,5.79c1.04,3.19,3.38,9.99-0.84,11.56
				c-4.22,1.57-7.41-0.99-5.7-7.62c1.7-6.63,1.7-10.26,2.75-15.09C365.17,131.78,367.17,128.22,373.75,130.44z"/>
			<path class="st6" d="M369.56,130.08c0,0,0.54,9.26,8.55,9.64c8.01,0.38,8.09-5.29,7.09-6.67
				C384.2,131.67,380.56,126.26,369.56,130.08z"/>
			<path class="st17" d="M377.66,160.33c0,0-2.88,3.63-4.3,4.18c-1.43,0.55-7.1-4.03-7.1-4.03s-7.81,4.36-14.28,5.13
				c0,0-5.77,2.08-7.93,17.99h51.8c0,0-0.37-3.33,0-3.33s2.85,3.33,6.87,3.33c4.02,0,17.62,0,17.62,0s14.47-14.02,21.16-23.84
				l-6.22-6.19c0,0-21.15,22.67-22.9,22.67c-1.75,0-15.21-11.3-15.76-11.62C396.06,164.29,382.16,164.06,377.66,160.33z"/>
			<path class="st18" d="M450.51,183.56h-15.06c0,0,35.58-27.82,36.28-28.61v7.98C467.8,167.02,450.51,183.56,450.51,183.56z"/>
			<path class="st18" d="M471.73,120.01v11.26c-2.68,3.28-62.99,48.79-66.67,52.32h-27.21
				C385.12,177.82,468.95,122.09,471.73,120.01z"/>
			<path class="st18" d="M416.59,112.72h14.3c-0.1,0.09-0.21,0.17-0.31,0.26c-5.95,5.1-64.79,63.47-71.39,70.58l-13.66,0.03
				C354.33,174.45,400.12,128.64,416.59,112.72z"/>
			<path class="st18" d="M343.58,147.79v-13.81c7.15-7.1,14.7-14.57,21.5-21.26h13.98C368.8,122.75,355.05,136.35,343.58,147.79z"/>
		</g>
		<path class="st19" d="M388.09,197.08c0,0-1.64-2.41-6.63-1.59c-4.99,0.82-7.9,9.22-7.9,9.22h14.15
			C387.71,204.72,388.97,198.23,388.09,197.08z"/>
		<path class="st19" d="M427.53,197.08c0,0,1.64-2.41,6.63-1.59c4.99,0.82,7.9,9.22,7.9,9.22h-14.15
			C427.92,204.72,426.65,198.23,427.53,197.08z"/>
		<path class="st9" d="M388.33,172.96c0,0-4.93,0.11-8.55,2.85c-3.62,2.74-17.77,25.27-18.42,27.09c-0.66,1.82,2.95,3.34,7.62,3.34
			c4.66,0,6.86,0.42,8.61-1.51c1.75-1.93,12.15-10.63,14.89-16.88C395.21,181.59,390.89,172.63,388.33,172.96z"/>
		<path class="st9" d="M428.17,172.96c0,0,4.93,0.11,8.55,2.85c3.62,2.74,17.77,25.27,18.42,27.09c0.66,1.82-2.95,3.34-7.62,3.34
			c-4.66,0-6.86,0.42-8.61-1.51c-1.75-1.93-12.15-10.63-14.89-16.88C421.28,181.59,425.6,172.63,428.17,172.96z"/>
		<polygon class="st16" points="412.4,159.65 404.1,159.65 402.63,167.31 413.86,167.31 		"/>
		<path class="st6" d="M408.33,136.83c-0.03,0-0.05,0.01-0.08,0.01c-0.03,0-0.05-0.01-0.08-0.01c-4.51,0-10.78,2.57-10.78,9.97
			c0,7.4,1.84,17.05,10.8,17.05c0.02,0,0.04,0,0.06,0c0.02,0,0.04,0,0.06,0c8.97,0,10.8-9.66,10.8-17.05
			C419.11,139.4,412.84,136.83,408.33,136.83z"/>
		<g>
			<path d="M395.71,287.3l-6.8,4.17c0,0,2.41,4.17,1.46,5.41c-0.95,1.24-6.29,7.31-6.51,10.31c-0.22,3,1.46,4.83,2.34,4.53
				c0.88-0.29,16.89-11.7,16.52-13.67C402.37,296.07,395.71,287.3,395.71,287.3z"/>
			<path d="M420.05,287.3l6.8,4.17c0,0-2.41,4.17-1.46,5.41c0.95,1.24,6.29,7.31,6.51,10.31c0.22,3-1.46,4.83-2.34,4.53
				c-0.88-0.29-16.89-11.7-16.52-13.67C413.39,296.07,420.05,287.3,420.05,287.3z"/>
		</g>
		<g>
			<g>
				<rect x="318.76" y="204.72" class="st9" width="6.02" height="114.17"/>
				<rect x="490.53" y="204.72" class="st9" width="6.02" height="114.17"/>
			</g>
			<rect x="307.75" y="204.72" class="st5" width="200.09" height="3.03"/>
		</g>
		<path class="st17" d="M423.42,222.82c-4.32-2.49-26.76-2.49-31.08,0c-4.32,2.49-26.55,18.79-26.55,22.74
			c0,3.95,24.13,49.2,24.13,49.2l8.85-4.51c0,0-14.73-37.89-12.94-39.53c1.79-1.64,22.05-2.89,22.05-2.89s20.26,1.24,22.05,2.89
			c1.79,1.65-12.94,39.53-12.94,39.53l8.85,4.51c0,0,24.13-45.25,24.13-49.2C449.97,241.61,427.74,225.3,423.42,222.82z"/>
		<path class="st20" d="M413.41,164.31c-0.38-0.38-3.57-0.13-5.16-0.13c-1.59,0-4.79-0.24-5.16,0.13c-0.38,0.38-2.92,6.06-2.92,6.06
			l8.09,1.71l8.09-1.71C416.33,170.37,413.78,164.69,413.41,164.31z"/>
		<g>
			<path class="st6" d="M432.49,311.75c-2.12-3.04-18.28-14.8-18.28-14.8h-6.33h-6.33c0,0-16.16,11.76-18.28,14.8
				c-2.12,3.04-1.68,6.18,0.81,6.18H392c0.47,0,0.88-0.32,0.98-0.78c0.11-0.52,0.22-1.27,0.21-2.18c0-0.5-0.36-0.93-0.85-1
				c-0.5-0.07-1.05-0.19-1.08-0.37c-0.08-0.43,0.19-1.2,1.82-2.54c2.92-2.41,9.9-7.75,9.9-7.75l4.91,0.15l4.91-0.15
				c0,0,6.97,5.34,9.9,7.75c1.62,1.34,1.89,2.11,1.82,2.54c-0.03,0.18-0.59,0.3-1.08,0.37c-0.49,0.07-0.85,0.5-0.85,1
				c-0.01,0.9,0.1,1.66,0.21,2.18c0.1,0.46,0.51,0.78,0.98,0.78h7.92C434.16,317.93,434.61,314.79,432.49,311.75z"/>
			<polygon class="st6" points="407.88,247.82 402.06,247.82 404.97,300.31 407.88,300.31 410.79,300.31 413.7,247.82 			"/>
			<path class="st6" d="M407.88,245.55h-15.54c0,0,1.58,17.88,15.54,17.88c13.96,0,15.54-17.88,15.54-17.88H407.88z"/>
			<path class="st5" d="M435.04,173.98c-3.95-5.26-27.16-6.29-27.16-6.29s-23.22,1.02-27.16,6.29c-3.95,5.26,6.87,48.84,10.53,55.86
				c3.66,7.02,16.64,6.87,16.64,6.87s12.98,0.15,16.64-6.87C428.17,222.82,438.99,179.24,435.04,173.98z"/>
			<path class="st6" d="M415.8,220.4c-1.33-0.89-14.5-0.89-15.83,0c-1.54,1.02,2.19,25.81,2.78,28.29c0.59,2.49,9.69,2.49,10.28,0
				C413.6,246.21,417.33,221.43,415.8,220.4z"/>
			<rect x="377.47" y="242.59" class="st6" width="60.82" height="8.12"/>
		</g>
		<rect x="319.33" y="198.71" class="st17" width="37.56" height="6.01"/>
		<rect x="315.22" y="192.7" class="st9" width="37.56" height="6.01"/>
		<g>
			<path class="st3" d="M485.08,190.48h-2.14v1.18h1.57c1.77,0,3.21,1.44,3.21,3.21v0.06c0,1.77-1.44,3.21-3.21,3.21h-1.57v1.18
				h2.14c2.42,0,4.37-1.96,4.37-4.37v-0.09C489.45,192.44,487.49,190.48,485.08,190.48z"/>
			<path class="st3" d="M482.28,204.72h-9.7c-1.42,0-2.57-1.15-2.57-2.57v-14.3h14.85v14.3
				C484.85,203.57,483.7,204.72,482.28,204.72z"/>
			<path class="st21" d="M476.93,202.78v-13.73h-5.61v12.26c0,1.22,0.99,2.21,2.21,2.21h3.54
				C477,203.28,476.93,203.04,476.93,202.78z"/>
			<path class="st22" d="M480.3,189.05v12.93c0,0.59-0.22,1.13-0.56,1.54h1.65c1.22,0,2.21-0.99,2.21-2.21v-12.26H480.3z"/>
		</g>
	</g>
	<g>
		<g>
			<path class="st17" d="M382.46,121.58h-29.89c-0.83,0-1.49-0.67-1.49-1.49v-19.25c0-0.83,0.67-1.49,1.49-1.49h29.89
				c0.83,0,1.49,0.67,1.49,1.49v19.25C383.95,120.91,383.28,121.58,382.46,121.58z"/>
			<rect x="352.57" y="101.11" class="st1" width="29.89" height="18.7"/>
		</g>
		<polygon class="st9" points="363.05,106.58 363.05,115.74 371.97,111.16 		"/>
	</g>
</g>
<rect x="253" y="88.25" class="st9" width="82.13" height="4.61"/>
<rect x="297.12" y="54.25" class="st17" width="5.75" height="34"/>
<rect x="288.38" y="58.25" class="st23" width="5.75" height="30"/>
<rect x="309.42" y="57.67" transform="matrix(0.9287 -0.3709 0.3709 0.9287 -4.6746 121.0286)" class="st9" width="5.75" height="30"/>
<rect x="317.17" y="57.67" transform="matrix(0.9287 -0.3709 0.3709 0.9287 -4.1217 123.9034)" class="st23" width="5.75" height="30"/>
<rect x="256.75" y="82.5" class="st3" width="28.92" height="5.16"/>
<g>
	<g>
		<g>
			<path class="st9" d="M424.43,108.2h17.54l-7.26,8.76l15.64-8.76h4.92c0.85,0,1.54-0.69,1.54-1.54V86.79
				c0-0.85-0.69-1.54-1.54-1.54h-30.85c-0.85,0-1.54,0.69-1.54,1.54v19.87C422.89,107.51,423.58,108.2,424.43,108.2z"/>
		</g>
	</g>
	<g>
		<g>
			<path class="st1" d="M444.85,94.2c0,2.57-3.23,3.33-3.23,4.33v0.4h-3.23v-0.95c0-1.38,2.46-2.17,2.46-3.7
				c0-0.7-0.45-1.32-1.25-1.32c-1.02,0-1.23,0.79-1.23,1.59c0,0.17,0,0.34,0.02,0.51h-3.48c-0.02-0.25-0.06-0.47-0.06-0.72
				c0-2.46,2.19-3.99,5.16-3.99C442.9,90.34,444.85,91.85,444.85,94.2z M441.9,103.57h-3.74v-3.5h3.74V103.57z"/>
		</g>
	</g>
</g>
<g>
	<path class="st3" d="M279.89,254.32c-3.31-1.4-5.71-2.57-5.15-7.86c0.27-2.51,1.16-4.25,2.96-5.77c1.46-1.23,2.2-1.68,2.65-3.72
		c0.68-3.09-0.18-5.63,1.3-8.46c1.58-3.02,5-2.72,6.59-5.53c1.37-2.44,2-5.14,5.11-6.09c2.75-0.84,4.42,1.51,3.48,3.91
		c-0.54,1.39-1.7,2.59-2.05,4.07c-0.34,1.46,0.37,2.45,1.06,3.65c1.65,2.84,2.5,6.25-0.7,9.14c-1.91,1.72-3.37,3.21-2.41,6.05
		c1.1,3.24,1.66,5.22-1.26,8.06c-2.19,2.13-4.23,1.96-6.69,2.13c-2.21,0.15-5.09,1.09-6.89-0.39L279.89,254.32z"/>
	<path class="st17" d="M272.83,254.25c-2.37,2.54-4.4,4.53-7.89,1.51c-1.78-1.53-2.55-3.38-2.51-6.03c0.04-2.08,0.18-3.02-1.11-4.61
		c-2.03-2.5-4.93-3.4-6.25-6.62c-1.41-3.47,1.75-5.7,0.6-8.82c-0.99-2.71-2.86-5.26-1.08-7.6c1.45-1.91,4.45-0.76,5.59,1.43
		c0.65,1.26,0.77,2.67,1.61,3.88c0.81,1.17,1.9,1.47,3.06,1.89c2.58,0.93,4.9,2.5,5.12,5.81c0.13,2.05,0.33,3.74,2.28,4.61
		c2.06,0.92,3.21,1.51,3.59,4.62c0.3,2.4-0.48,3.76-1.29,5.68c-0.77,1.84-1.42,4.72-3.09,5.77L272.83,254.25z"/>
	<g>
		<path class="st1" d="M282.32,250.91c-0.1,0-0.21,0-0.31-0.02c-0.14-0.01-0.24-0.14-0.22-0.27c0.01-0.14,0.12-0.25,0.27-0.22
			c1.64,0.17,3.34-1.32,4.28-2.65c0.75-1.06,0.68-2.02,0.6-3.23l-0.06-1c-0.16-2.61-0.3-4.87,1.73-6.92
			c2.25-2.27,2.8-3.67,2.68-6.82c-0.01-0.26-0.02-0.53-0.04-0.8c-0.06-1.02-0.12-2.18,0.07-3.13c0.11-0.54,0.36-1.06,0.6-1.55
			c0.31-0.64,0.61-1.25,0.62-1.89c0-0.14,0.11-0.25,0.25-0.25c0,0,0,0,0,0c0.14,0,0.25,0.12,0.25,0.25
			c-0.01,0.75-0.34,1.44-0.67,2.1c-0.24,0.49-0.46,0.96-0.56,1.44c-0.18,0.89-0.12,2.01-0.06,3c0.02,0.28,0.03,0.56,0.04,0.82
			c0.12,3.28-0.49,4.83-2.83,7.19c-1.87,1.89-1.75,3.94-1.59,6.54l0.06,0.99c0.09,1.26,0.17,2.35-0.69,3.55
			C285.74,249.45,284.07,250.91,282.32,250.91z"/>
	</g>
	<g>
		<path class="st1" d="M288.01,243.97c-0.31,0-0.68-0.12-1.04-0.54c-0.09-0.1-0.08-0.26,0.03-0.35c0.1-0.09,0.26-0.08,0.35,0.03
			c0.26,0.31,0.54,0.42,0.84,0.34c1.05-0.26,2.19-2.51,2.38-3.35c0.55-2.48,1.2-3.75,3.63-4.69c0.13-0.05,0.27,0.01,0.32,0.14
			c0.05,0.13-0.01,0.27-0.14,0.32c-2.33,0.9-2.82,2.06-3.32,4.33c-0.16,0.75-1.34,3.38-2.74,3.73
			C288.22,243.95,288.12,243.97,288.01,243.97z"/>
	</g>
	<g>
		<path class="st1" d="M272.97,252.94c-0.47,0-0.91-0.11-1.32-0.32c-1.74-0.92-2.55-3.62-3.26-6c-0.35-1.18-0.68-2.29-1.08-3.01
			c-1.07-1.94-2.24-3.24-4.33-4.77c-2.44-1.79-3.04-3.15-3.47-6.07c-0.36-2.39-0.85-4.8-1.92-6.23c-0.08-0.11-0.06-0.27,0.05-0.35
			c0.11-0.08,0.27-0.06,0.35,0.05c1.15,1.52,1.65,4,2.02,6.46c0.42,2.82,0.96,4.04,3.28,5.74c1.77,1.3,3.21,2.64,4.47,4.93
			c0.42,0.77,0.76,1.91,1.12,3.11c0.68,2.29,1.46,4.88,3.01,5.7c0.6,0.32,1.28,0.35,2.07,0.1c0.13-0.04,0.27,0.03,0.31,0.16
			c0.04,0.13-0.03,0.27-0.16,0.31C273.71,252.88,273.33,252.94,272.97,252.94z"/>
	</g>
	<g>
		<path class="st1" d="M265.28,240.64c-0.05,0-0.11-0.02-0.15-0.05c-0.11-0.09-0.13-0.24-0.04-0.35c0.73-0.95,0.29-2.46-0.19-4.05
			c-0.41-1.39-0.84-2.83-0.48-4c0.04-0.13,0.18-0.21,0.31-0.16c0.13,0.04,0.21,0.18,0.16,0.31c-0.32,1.02,0.09,2.39,0.48,3.7
			c0.49,1.65,1,3.35,0.11,4.5C265.43,240.61,265.36,240.64,265.28,240.64z"/>
	</g>
	<g>
		<path class="st1" d="M267.78,244.02c-0.03,0-0.06-0.01-0.09-0.02c-0.35-0.14-0.63-0.3-0.89-0.47c-0.43-0.26-0.8-0.48-1.41-0.52
			c-0.32-0.02-0.62,0-0.92,0.02c-0.62,0.04-1.26,0.09-2.02-0.29c-1.08-0.54-2.23-1.54-3.4-2.98c-0.16-0.2-0.37-0.51-0.58-0.84
			c-0.31-0.47-0.89-1.36-1.11-1.41c-0.13-0.03-0.22-0.16-0.19-0.3c0.03-0.13,0.15-0.22,0.28-0.2c0.39,0.07,0.8,0.66,1.44,1.63
			c0.21,0.32,0.41,0.62,0.55,0.8c0.77,0.95,1.96,2.21,3.23,2.85c0.64,0.32,1.16,0.28,1.76,0.24c0.31-0.02,0.63-0.05,0.99-0.02
			c0.73,0.05,1.19,0.33,1.63,0.59c0.25,0.15,0.5,0.31,0.82,0.43c0.13,0.05,0.19,0.2,0.14,0.32
			C267.98,243.95,267.88,244.02,267.78,244.02z"/>
	</g>
	<path class="st5" d="M271.82,254.79c-3.55-2.99-7.76-5-6.81-10.7c0.79-4.72,6.23-5.93,4.53-11.01c-1.09-3.25-3.91-6.99-2.95-10.61
		c1.02-3.87,6.07-2.32,7.16-5.93c0.92-3.05-2.3-6.58,0.56-9.07c2.52-2.2,6.99-0.11,8.34,2.41c1.73,3.23-1.13,5.62-0.66,8.77
		c0.31,2.04,2.26,2.33,3.68,3.5c1.38,1.14,2.87,2.91,3.47,4.61c1.84,5.23-3.42,7.12-5.01,11.15c-1.5,3.8,3.62,4.97,4.01,8.8
		c0.43,4.23-4.1,7.56-7.74,8.25C277.9,255.43,274.06,256.68,271.82,254.79z"/>
	<g>
		<path class="st1" d="M275.9,256.02c-0.02,0-0.05,0-0.07-0.01c-0.13-0.04-0.21-0.18-0.17-0.31c0.03-0.1,2.86-9.8,0.45-20.12
			c-1.52-6.53-0.15-11.1,0.96-14.78c0.66-2.19,1.23-4.07,0.92-5.74c-0.02-0.14,0.06-0.27,0.2-0.29c0.14-0.03,0.27,0.07,0.29,0.2
			c0.33,1.79-0.25,3.73-0.93,5.98c-1.09,3.62-2.45,8.12-0.95,14.52c2.44,10.45-0.43,20.27-0.46,20.37
			C276.11,255.95,276.01,256.02,275.9,256.02z"/>
	</g>
	<g>
		<path class="st1" d="M276.53,235.52c-0.12,0-0.23-0.09-0.25-0.21c-0.02-0.14,0.07-0.26,0.21-0.28c2.07-0.32,4.44-2.21,4.66-4.53
			c0.03-0.28,0.04-0.58,0.06-0.9c0.09-1.52,0.21-3.41,1.31-4.32c0.54-0.45,1.27-0.61,2.15-0.5c0.14,0.02,0.23,0.14,0.22,0.28
			c-0.02,0.14-0.14,0.23-0.28,0.22c-0.76-0.09-1.34,0.03-1.77,0.39c-0.94,0.78-1.04,2.55-1.13,3.97c-0.02,0.32-0.04,0.63-0.07,0.92
			c-0.25,2.63-2.84,4.63-5.09,4.97C276.56,235.51,276.55,235.52,276.53,235.52z"/>
	</g>
	<g>
		<path class="st1" d="M275.02,235.58c-1-0.02-1.83-0.32-2.47-0.88c-1.01-0.88-1.52-2.43-1.47-4.46c0.01-0.2,0.02-0.43,0.03-0.69
			c0.07-1.44,0.18-3.62-0.72-4.6c-0.3-0.32-0.68-0.49-1.17-0.51c-0.14-0.01-0.25-0.12-0.24-0.26c0.01-0.14,0.12-0.24,0.26-0.24
			c0,0,0,0,0,0c0.62,0.02,1.14,0.25,1.52,0.67c1.04,1.13,0.92,3.44,0.85,4.96c-0.01,0.25-0.02,0.48-0.03,0.68
			c-0.05,1.88,0.4,3.29,1.3,4.07c0.77,0.67,1.88,0.9,3.29,0.67c0.14-0.02,0.26,0.07,0.29,0.21c0.02,0.14-0.07,0.26-0.21,0.29
			C275.82,235.56,275.41,235.59,275.02,235.58z"/>
	</g>
	<g>
		<path class="st1" d="M277.97,251.92c-0.31,0-0.62-0.05-0.91-0.17c-0.13-0.05-0.19-0.2-0.14-0.33c0.05-0.13,0.19-0.19,0.33-0.14
			c1.5,0.62,3.81-1.08,4.68-2.2c0.36-0.47,0.6-1.19,0.85-1.96c0.45-1.37,0.92-2.79,2.19-3.1c0.14-0.04,0.27,0.05,0.3,0.18
			c0.03,0.13-0.05,0.27-0.18,0.3c-1,0.25-1.42,1.53-1.83,2.77c-0.27,0.81-0.52,1.58-0.94,2.11
			C281.55,250.4,279.65,251.92,277.97,251.92z"/>
	</g>
	<g>
		<path class="st1" d="M275.75,251.82c-0.32,0-0.64-0.06-0.97-0.17c-1.83-0.64-3.37-2.91-3.95-4.29c-0.31-0.73-0.35-1.77-0.39-2.88
			c-0.06-1.75-0.13-3.55-1.27-4.12c-0.12-0.06-0.17-0.21-0.11-0.34c0.06-0.12,0.21-0.17,0.34-0.11c1.41,0.71,1.48,2.75,1.55,4.55
			c0.04,1.05,0.07,2.05,0.35,2.7c0.53,1.24,1.98,3.43,3.65,4.01c0.65,0.23,1.27,0.18,1.84-0.13c0.12-0.06,0.27-0.02,0.34,0.1
			c0.07,0.12,0.02,0.27-0.1,0.34C276.62,251.71,276.19,251.82,275.75,251.82z"/>
	</g>
	<g>
		<path class="st9" d="M259.89,253.31c-1.79,4.78-2.83,10.41-2.83,16.42c0,17.4,8.64,31.51,19.3,31.51
			c10.66,0,19.3-14.11,19.3-31.51c0-6.02-1.03-11.64-2.83-16.42H259.89z"/>
		<path class="st17" d="M294.86,260.79c-0.48-2.65-1.16-5.16-2.03-7.47h-32.94c-0.87,2.31-1.55,4.82-2.03,7.47H294.86z"/>
	</g>
</g>
<circle class="st1" cx="507.84" cy="101.11" r="9.93"/>
</svg>
